<?xml version="1.0" standalone="no"?>
<!DOCTYPE svg PUBLIC "-//W3C//DTD SVG 20010904//EN"
 "http://www.w3.org/TR/2001/REC-SVG-20010904/DTD/svg10.dtd">
<svg version="1.0" xmlns="http://www.w3.org/2000/svg"
 width="512.000000pt" height="512.000000pt" viewBox="0 0 512.000000 512.000000"
 preserveAspectRatio="xMidYMid meet">
<metadata>
Created by potrace 1.14, written by Peter Selinger 2001-2017
</metadata>
<g transform="translate(0.000000,512.000000) scale(0.100000,-0.100000)"
fill="#000000" stroke="none">
<path d="M3452 4828 c-7 -7 -12 -40 -12 -80 l0 -67 -71 -3 c-55 -2 -74 -7 -83
-20 -8 -13 -8 -23 0 -35 9 -14 27 -19 82 -21 l71 -3 3 -71 c2 -55 7 -73 21
-82 12 -8 22 -8 35 0 13 9 18 27 20 82 l3 71 71 3 c55 2 73 7 82 21 8 12 8 22
0 35 -9 13 -28 18 -83 20 l-71 3 0 67 c0 69 -10 92 -40 92 -9 0 -21 -5 -28
-12z"/>
<path d="M12 4668 c-6 -6 -12 -20 -12 -29 0 -32 25 -40 125 -37 80 2 100 6
109 21 8 12 8 22 0 35 -9 14 -29 18 -110 20 -69 2 -103 -1 -112 -10z"/>
<path d="M332 4668 c-16 -16 -15 -43 2 -57 9 -8 193 -10 671 -9 614 3 659 4
669 21 8 12 8 22 0 35 -10 16 -55 17 -671 20 -504 2 -662 -1 -671 -10z"/>
<path d="M3972 4508 c-7 -7 -12 -40 -12 -80 l0 -67 -71 -3 c-55 -2 -74 -7 -83
-20 -8 -13 -8 -23 0 -35 9 -14 27 -19 82 -21 l71 -3 3 -71 c2 -55 7 -73 21
-82 12 -8 22 -8 35 0 13 9 18 27 20 82 l3 71 71 3 c55 2 73 7 82 21 8 12 8 22
0 35 -9 13 -28 18 -83 20 l-71 3 0 67 c0 69 -10 92 -40 92 -9 0 -21 -5 -28
-12z"/>
<path d="M1735 3952 l-810 -487 0 -985 0 -985 810 -487 c446 -268 817 -487
825 -487 8 0 380 219 825 487 l810 487 0 985 0 985 -810 487 c-445 268 -817
487 -825 487 -8 0 -379 -219 -825 -487z m1591 -58 c409 -246 744 -450 744
-453 0 -3 -340 -210 -755 -459 l-755 -453 -755 453 c-415 249 -754 456 -752
461 5 15 1503 907 1515 902 8 -3 349 -206 758 -451z m-1558 -989 l751 -450 1
-908 c0 -512 -4 -907 -9 -905 -5 2 -346 206 -759 453 l-751 450 -1 908 c0 512
4 907 9 905 5 -1 346 -205 759 -453z m2352 -453 l0 -907 -760 -457 -760 -458
0 913 0 912 753 452 c413 249 755 452 760 453 4 0 7 -408 7 -908z"/>
<path d="M2292 3821 c-133 -80 -260 -164 -281 -184 -111 -108 -112 -282 -3
-392 45 -45 314 -207 385 -232 79 -27 273 -25 347 5 71 28 659 381 674 404 13
21 -2 51 -26 56 -8 2 -147 -77 -309 -174 -390 -235 -376 -228 -519 -228 -135
0 -144 3 -344 123 -153 93 -184 122 -202 190 -17 65 0 138 42 182 16 17 143
99 282 182 140 85 255 160 258 170 7 24 -13 47 -40 46 -11 0 -130 -67 -264
-148z"/>
<path d="M1377 2768 c-16 -12 -17 -49 -15 -518 l3 -505 278 -174 c241 -151
283 -174 318 -174 45 0 86 25 107 64 9 17 12 73 10 201 -3 163 -5 179 -25 206
l-21 29 21 22 c21 20 22 33 25 189 4 187 -3 222 -49 270 -27 28 -580 381 -620
397 -8 3 -22 0 -32 -7z m327 -276 c137 -86 259 -170 270 -185 18 -25 21 -45
24 -167 3 -139 -4 -180 -32 -180 -7 0 -127 71 -267 158 l-254 159 -3 186 c-1
103 1 187 5 187 5 0 120 -71 257 -158z m0 -480 c137 -86 259 -170 270 -185 19
-25 21 -45 24 -170 3 -113 0 -146 -12 -162 -14 -20 -14 -20 -58 2 -23 12 -142
84 -263 160 l-220 139 -3 187 c-1 103 1 187 5 186 5 0 120 -71 257 -157z"/>
<path d="M3407 2498 c-8 -13 -103 -283 -212 -601 -205 -597 -207 -606 -161
-615 9 -2 23 1 30 7 8 6 46 107 86 224 l73 213 204 130 c112 71 206 128 210
127 4 0 36 -59 72 -130 57 -110 69 -128 90 -128 13 0 29 8 35 18 9 14 -22 83
-179 395 -155 308 -194 378 -212 380 -14 2 -27 -5 -36 -20z m119 -279 c41 -84
72 -155 67 -159 -18 -16 -315 -201 -318 -198 -3 3 168 508 172 508 2 0 37 -68
79 -151z"/>
<path d="M3452 348 c-16 -16 -15 -43 2 -57 9 -8 193 -10 671 -9 614 3 659 4
669 20 8 13 8 23 0 35 -10 17 -55 18 -671 21 -504 2 -662 -1 -671 -10z"/>
<path d="M4892 348 c-6 -6 -12 -20 -12 -29 0 -32 25 -40 125 -37 80 2 100 6
109 21 8 12 8 22 0 35 -9 14 -29 18 -110 20 -69 2 -103 -1 -112 -10z"/>
</g>
</svg>
